<?xml version="1.0" encoding="utf-8"?>
<svg xmlns="http://www.w3.org/2000/svg"
	xmlns:xlink="http://www.w3.org/1999/xlink"
	width="65px" height="65px" viewBox="0 0 65 65">
<path fillRule="evenodd" d="M 32.49 65C 14.55 65-0 50.45-0 32.51-0 14.56 14.55-0 32.49-0 50.44-0 65 14.56 65 32.51 65 50.45 50.44 65 32.49 65ZM 32.49 3.65C 16.56 3.65 3.65 16.56 3.65 32.51 3.65 48.43 16.56 61.35 32.49 61.35 48.42 61.35 61.35 48.43 61.35 32.51 61.35 16.56 48.42 3.65 32.49 3.65ZM 41.56 40.32C 41.55 40.62 41.52 40.91 41.45 41.17 41.26 41.92 40.83 42.58 40.17 43.1 40.24 43.39 40.28 43.72 40.28 44.07 40.28 44.52 40.21 44.95 40.06 45.35 39.74 46.21 39.12 46.88 38.22 47.35 37.5 50.6 34.95 51.19 33.44 51.25 33.18 51.26 32.83 51.27 32.43 51.27 32.43 51.27 32.43 51.27 32.43 51.27 29.49 51.27 26.54 50.64 23.41 49.36 23.07 49.22 22.73 49.07 22.38 48.91 20.52 48.1 18.42 47.17 15.22 47.17 15.22 47.17 14.23 47.17 14.23 47.17 14.23 47.17 14.23 35.19 14.23 35.19 14.23 35.19 15.3 35.27 15.3 35.27 15.3 35.27 15.55 35.28 15.94 35.28 16.66 35.28 18.04 35.23 19.21 34.83 19.89 34.6 21.05 33.63 22.16 32.69 23.26 31.76 24.39 30.8 25.51 30.13 26.15 29.75 26.02 29.8 26.58 30.3 29.73 33.13 38.68 32.76 38.68 32.76 38.68 32.76 38.74 32.76 38.74 32.76 41.92 32.76 42.28 34.95 42.3 35.89 42.31 37.12 41.74 38.03 41.21 38.6 41.41 39.01 41.57 39.57 41.56 40.32ZM 38.64 31.68C 38.64 31.68 38.28 31.69 37.69 31.69 32.72 31.69 28.84 30.87 27.3 29.49 27.23 29.42 27.17 29.36 27.12 29.31 27.05 29.25 26.98 29.18 26.9 29.12 26.95 28.33 27.01 27.62 27.09 27.03 27.52 23.77 29.09 21.72 29.84 20.17 31.08 17.63 31.09 14.48 31.09 14.48 31.09 14.48 30.66 13.08 30.66 13.08 30.66 13.08 30.66 10.64 30.66 10.64 30.66 10.64 31.78 10.39 33.72 10.46 35.67 10.39 36.79 10.64 36.79 10.64 36.79 10.64 36.79 13.08 36.79 13.08 36.79 13.08 36.35 14.48 36.35 14.48 36.35 14.48 36.37 17.63 37.61 20.17 38.36 21.72 39.93 23.77 40.36 27.03 40.52 28.28 40.64 30.04 40.67 31.96 40.12 31.78 39.48 31.67 38.73 31.67 38.73 31.67 38.64 31.68 38.64 31.68ZM 32.43 52.35C 32.85 52.35 33.21 52.34 33.49 52.33 36.36 52.23 38.4 50.68 39.16 48.06 39.52 47.83 39.84 47.57 40.11 47.28 40.35 48.48 40.5 49.89 40.12 51.74 39.59 54.25 37.67 54.56 37.67 54.56 37.67 54.56 29.78 54.56 29.78 54.56 29.78 54.56 27.88 54.25 27.34 51.76 29.06 52.16 30.74 52.35 32.43 52.35 32.43 52.35 32.43 52.35 32.43 52.35Z" fill="rgb(255,255,255)"/></svg>