<?xml version="1.0" encoding="utf-8"?>
<svg xmlns="http://www.w3.org/2000/svg"
	xmlns:xlink="http://www.w3.org/1999/xlink"
	width="65px" height="65px" viewBox="0 0 65 65">
<path fillRule="evenodd" d="M 32.49 65C 14.55 65-0 50.45-0 32.51-0 14.56 14.55-0 32.49-0 50.44-0 65 14.56 65 32.51 65 50.45 50.44 65 32.49 65ZM 32.49 3.65C 16.56 3.65 3.65 16.56 3.65 32.51 3.65 48.43 16.56 61.35 32.49 61.35 48.43 61.35 61.35 48.43 61.35 32.51 61.35 16.56 48.43 3.65 32.49 3.65ZM 32.5 53.92C 23.57 53.92 16.33 48.43 16.33 39.5 16.33 32.53 20.75 24.46 26.94 21.26 26.94 21.26 26.94 21.37 26.94 21.37 26.94 21.37 38.05 21.37 38.05 21.37 38.05 21.37 38.05 21.26 38.05 21.26 44.24 24.46 48.67 32.53 48.67 39.5 48.67 48.43 41.43 53.92 32.5 53.92ZM 39.65 38.22C 38.7 37.4 37.25 36.78 35.29 36.36 35.29 36.36 34.04 36.09 34.04 36.09 34.04 36.09 34.04 32.5 34.04 32.5 35.11 32.56 36.05 32.7 36.86 32.94 37.67 33.2 38.42 33.52 39.11 33.95 39.11 33.95 39.56 33.95 39.56 33.95 39.56 33.95 39.56 29.88 39.56 29.88 38.97 29.62 38.14 29.38 37.03 29.16 35.94 28.94 34.96 28.81 34.11 28.79 34.11 28.79 34.11 25.52 34.11 25.52 34.11 25.52 31.79 25.52 31.79 25.52 31.79 25.52 31.79 28.81 31.79 28.81 29.67 29.03 28.03 29.62 26.84 30.61 25.66 31.61 25.07 32.82 25.07 34.24 25.07 35.2 25.22 36 25.52 36.62 25.81 37.24 26.23 37.76 26.74 38.2 27.27 38.65 27.86 38.99 28.52 39.25 29.19 39.5 29.87 39.72 30.6 39.9 30.6 39.9 31.87 40.2 31.87 40.2 31.87 40.2 31.87 44.12 31.87 44.12 30.69 44.08 29.52 43.87 28.34 43.48 27.16 43.1 26.35 42.77 25.9 42.47 25.9 42.47 25.44 42.47 25.44 42.47 25.44 42.47 25.44 46.57 25.44 46.57 26.17 46.95 27.15 47.25 28.4 47.49 29.64 47.74 30.77 47.87 31.79 47.88 31.79 47.88 31.79 51.17 31.79 51.17 31.79 51.17 34.11 51.17 34.11 51.17 34.11 51.17 34.11 47.81 34.11 47.81 35.19 47.75 36.15 47.54 37.01 47.19 37.87 46.85 38.6 46.4 39.19 45.85 39.78 45.33 40.24 44.71 40.56 44 40.9 43.3 41.06 42.54 41.06 41.75 41.06 40.21 40.59 39.04 39.65 38.22ZM 33.94 44.09C 33.94 44.09 33.94 40.47 33.94 40.47 34.68 40.62 35.21 40.84 35.55 41.14 35.88 41.45 36.05 41.82 36.05 42.3 36.05 42.89 35.85 43.31 35.44 43.6 35.04 43.88 34.54 44.03 33.94 44.09ZM 30.01 34.12C 30.01 33.62 30.2 33.25 30.59 32.97 30.98 32.72 31.43 32.56 31.96 32.51 31.96 32.51 31.96 35.82 31.96 35.82 31.11 35.62 30.58 35.4 30.35 35.12 30.12 34.87 30.01 34.52 30.01 34.12ZM 38.05 19.45C 38.05 19.45 26.94 19.45 26.94 19.45 26.94 19.45 26.94 17.09 26.94 17.09 26.94 17.09 38.05 17.09 38.05 17.09 38.05 17.09 38.05 19.45 38.05 19.45ZM 26.94 15.2C 26.94 15.2 25.19 11.08 25.19 11.08 25.19 11.08 39.81 11.08 39.81 11.08 39.81 11.08 38.05 15.2 38.05 15.2 38.05 15.2 26.94 15.2 26.94 15.2Z" fill="rgb(255,255,255)"/></svg>