<?xml version="1.0" encoding="utf-8"?>
<svg xmlns="http://www.w3.org/2000/svg"
	xmlns:xlink="http://www.w3.org/1999/xlink"
	width="65px" height="65px" viewBox="0 0 65 65">
<path fillRule="evenodd" d="M 32.49 65C 14.55 65-0 50.45-0 32.51-0 14.56 14.55-0 32.49-0 50.44-0 65 14.56 65 32.51 65 50.45 50.44 65 32.49 65ZM 32.49 3.65C 16.56 3.65 3.65 16.56 3.65 32.51 3.65 48.43 16.56 61.35 32.49 61.35 48.42 61.35 61.35 48.43 61.35 32.51 61.35 16.56 48.42 3.65 32.49 3.65ZM 54.04 25.26C 51.47 28.85 47.86 30.22 44.07 29.06 42.88 31.1 41.75 33.19 40.66 35.29 42.26 36.11 44.16 37.56 45.13 38.33 46.35 39.3 47.9 43.13 48.83 45.05 49.83 47.11 46.62 48.61 45.63 46.55 44.81 44.86 43.43 41.5 42.63 40.84 41.83 40.18 39.19 38.31 37.18 37.61 37.08 37.58 36.99 37.53 36.91 37.49 34.45 40.61 29.63 42.09 25.52 39.68 23.35 38.42 25.31 35.3 27.48 36.57 30.49 38.33 33.63 36.08 35.05 33.26 36.46 30.44 37.47 28.46 38.62 26.46 36.37 25.74 34.32 26.4 32.71 28.66 31.39 30.5 28.32 28.73 29.65 26.87 32.77 22.49 37.43 21.41 42.1 24.18 42.3 24.29 43.17 24.78 43.37 24.89 46.27 26.62 48.97 26.29 50.98 23.47 52.29 21.63 55.36 23.39 54.04 25.26ZM 45.21 24.48C 43.28 24.48 41.71 22.91 41.71 20.97 41.71 19.04 43.28 17.47 45.21 17.47 47.15 17.47 48.72 19.04 48.72 20.97 48.72 22.91 47.15 24.48 45.21 24.48ZM 37.61 20.46C 37.61 20.46 24.12 20.46 24.12 20.46 23.77 20.46 23.48 20.17 23.48 19.81 23.48 19.46 23.77 19.17 24.12 19.17 24.12 19.17 37.61 19.17 37.61 19.17 37.97 19.17 38.26 19.46 38.26 19.81 38.26 20.17 37.97 20.46 37.61 20.46ZM 26.19 26.09C 26.19 26.44 25.9 26.73 25.55 26.73 25.55 26.73 12.06 26.73 12.06 26.73 11.7 26.73 11.42 26.44 11.42 26.09 11.42 25.73 11.7 25.45 12.06 25.45 12.06 25.45 25.55 25.45 25.55 25.45 25.9 25.45 26.19 25.73 26.19 26.09ZM 15.68 33.33C 15.68 32.98 15.97 32.69 16.32 32.69 16.32 32.69 29.81 32.69 29.81 32.69 30.17 32.69 30.45 32.98 30.45 33.33 30.45 33.69 30.17 33.98 29.81 33.98 29.81 33.98 16.32 33.98 16.32 33.98 15.97 33.98 15.68 33.69 15.68 33.33ZM 24.04 41.44C 24.04 41.79 23.76 42.08 23.4 42.08 23.4 42.08 11.28 42.08 11.28 42.08 10.92 42.08 10.64 41.79 10.64 41.44 10.64 41.08 10.92 40.79 11.28 40.79 11.28 40.79 23.4 40.79 23.4 40.79 23.76 40.79 24.04 41.08 24.04 41.44Z" fill="rgb(255,255,255)"/></svg>