<?xml version="1.0" encoding="utf-8"?>
<svg xmlns="http://www.w3.org/2000/svg"
	xmlns:xlink="http://www.w3.org/1999/xlink"
	width="65px" height="65px" viewBox="0 0 65 65">
<path fillRule="evenodd" d="M 32.49 65C 14.55 65-0 50.45-0 32.51-0 14.56 14.55-0 32.49-0 50.44-0 65 14.56 65 32.51 65 50.45 50.44 65 32.49 65ZM 32.49 3.65C 16.56 3.65 3.65 16.56 3.65 32.51 3.65 48.43 16.56 61.35 32.49 61.35 48.43 61.35 61.35 48.43 61.35 32.51 61.35 16.56 48.43 3.65 32.49 3.65ZM 39.94 46.65C 40.34 48.26 41.06 50.16 40.37 53.04 39.72 55.72 37.36 56.04 37.36 56.04 37.36 56.04 27.65 56.04 27.65 56.04 27.65 56.04 25.28 55.72 24.63 53.04 23.93 50.16 24.65 48.26 25.05 46.65 25.46 45.03 25.32 44.21 24.71 41.6 23.72 37.4 23.8 30.15 24.33 26.66 24.86 23.18 26.79 20.99 27.72 19.34 29.24 16.63 29.26 13.27 29.26 13.27 29.26 13.27 28.72 11.77 28.72 11.77 28.72 11.77 28.72 9.16 28.72 9.16 28.72 9.16 30.11 8.9 32.5 8.97 34.89 8.9 36.27 9.16 36.27 9.16 36.27 9.16 36.27 11.77 36.27 11.77 36.27 11.77 35.73 13.27 35.73 13.27 35.73 13.27 35.75 16.63 37.28 19.34 38.2 20.99 40.13 23.18 40.67 26.66 41.2 30.15 41.28 37.4 40.29 41.6 39.67 44.21 39.54 45.03 39.94 46.65Z" fill="rgb(255,255,255)"/></svg>