<?xml version="1.0" encoding="utf-8"?>
<svg xmlns="http://www.w3.org/2000/svg"
	xmlns:xlink="http://www.w3.org/1999/xlink"
	width="65px" height="65px" viewBox="0 0 65 65">
<path fillRule="evenodd" d="M 32.49 65C 14.55 65-0 50.45-0 32.51-0 14.56 14.55-0 32.49-0 50.44-0 65 14.56 65 32.51 65 50.45 50.44 65 32.49 65ZM 32.49 3.65C 16.56 3.65 3.65 16.56 3.65 32.51 3.65 48.43 16.56 61.35 32.49 61.35 48.43 61.35 61.35 48.43 61.35 32.51 61.35 16.56 48.43 3.65 32.49 3.65ZM 40.89 47.98C 38.88 49.06 36.1 49.89 33.22 49.89 28.74 49.89 24.88 48.44 23.06 46.11 22.25 50.14 19.97 53.04 17.29 53.04 17.01 53.04 16.74 53 16.47 52.94 16.47 52.94 16.47 29.83 16.47 29.83 17.53 29.6 18.68 29.48 19.88 29.48 24.32 29.48 28.1 31.19 29.46 33.58 30.68 32.49 32.42 31.8 34.37 31.8 36.37 31.8 38.17 32.54 39.39 33.69 39.43 33.25 39.6 32.12 40.39 29.65 41.47 26.2 41.66 20.74 41.66 20.74 41.66 20.74 38.43 23.03 35.79 22.25 33.71 21.63 33.82 20.61 34 20.53 34.19 20.44 35.04 20.7 35.99 20.46 36.91 20.22 37.16 19.79 37.16 19.79 37.16 19.79 34 20.7 31.98 19.63 31.06 19.13 29.92 13.54 35.19 13.09 40.48 12.64 43.75 12.54 44.93 15.01 46.12 17.45 52.1 36.86 51.77 41.67 51.49 45.45 44.56 47.17 40.89 47.98Z" fill="rgb(255,255,255)"/></svg>