<?xml version="1.0" encoding="utf-8"?>
<svg xmlns="http://www.w3.org/2000/svg"
	xmlns:xlink="http://www.w3.org/1999/xlink"
	width="65px" height="65px" viewBox="0 0 65 65">
<path fillRule="evenodd" d="M 32.49 65C 14.55 65-0 50.45-0 32.51-0 14.56 14.55-0 32.49-0 50.44-0 65 14.56 65 32.51 65 50.45 50.44 65 32.49 65ZM 32.49 3.65C 16.56 3.65 3.65 16.56 3.65 32.51 3.65 48.43 16.56 61.35 32.49 61.35 48.43 61.35 61.35 48.43 61.35 32.51 61.35 16.56 48.43 3.65 32.49 3.65ZM 45.41 34.38C 46.93 34.44 48.11 35.75 48.05 37.3 47.98 38.85 46.69 40.05 45.17 39.98 45.17 39.98 44.26 39.94 44.26 39.94 45.77 40.01 47.03 41.1 47.03 42.65 47.03 44.52 45.52 45.61 44 45.54 44 45.54 42.29 45.47 42.29 45.47 42.26 45.46 42.27 45.48 42.25 45.48 42.79 45.66 43.75 46.23 43.68 47.81 43.68 47.86 43.66 48.22 43.65 48.3 43.56 48.86 43.34 49.14 43.14 49.33 42.6 49.84 41.86 50.27 40.93 50.27 40.93 50.27 37.9 50.26 36.92 50.26 31.33 50.26 28.09 49.7 25.92 48.95 24.33 48.39 23.3 47.63 21.97 47.63 21.97 47.63 19.34 47.63 19.34 47.63 17.45 47.63 16.71 47.02 16.71 45.19 16.71 45.19 16.71 33.16 16.71 33.16 16.71 31.53 17.61 30.52 19.34 30.52 20.2 30.52 22.22 30.66 23.52 29.36 23.6 29.2 23.68 29.06 23.76 28.91 23.8 28.81 23.86 28.74 23.9 28.64 23.93 28.56 23.97 28.5 24.01 28.45 24.5 27.63 24.99 26.97 25.36 26.56 27.46 24.27 29.26 24.51 30.58 21.93 31.75 19.64 32.09 18.39 32.35 16.96 32.35 16.96 32.36 16.96 32.36 16.96 32.36 16.96 32.67 14.73 33.82 14.73 35.28 14.73 37.76 15.2 37.76 18.68 37.76 23.9 35.66 27.42 35.66 27.42 35.66 27.42 45.76 28.69 45.76 28.69 47.29 28.76 48.36 30.15 48.29 31.7 48.22 33.25 46.93 34.44 45.41 34.38Z" fill="rgb(255,255,255)"/></svg>