<svg xmlns="http://www.w3.org/2000/svg" xmlns:xlink="http://www.w3.org/1999/xlink" preserveAspectRatio="xMidYMid" width="13" height="13" viewBox="0 0 13 13">
  <defs>
    <style>
      .cls-1 {
        fill: #4d4d4d;
        fill-rule: evenodd;
      }
    </style>
  </defs>
  <path d="M8.035,6.487 L12.679,1.843 C13.106,1.416 13.106,0.722 12.679,0.295 C12.251,-0.132 11.558,-0.132 11.131,0.295 L6.487,4.939 L1.843,0.295 C1.415,-0.133 0.722,-0.133 0.295,0.295 C-0.133,0.722 -0.133,1.416 0.295,1.843 L4.939,6.487 L0.295,11.131 C-0.133,11.558 -0.133,12.252 0.295,12.679 C0.722,13.106 1.415,13.106 1.843,12.679 L6.487,8.035 L11.131,12.679 C11.558,13.106 12.251,13.106 12.679,12.679 C13.106,12.251 13.106,11.558 12.679,11.131 L8.035,6.487 Z" class="cls-1"/>
</svg>
