<?xml version="1.0" encoding="utf-8"?>
<!-- Generator: Adobe Illustrator 18.1.1, SVG Export Plug-In . SVG Version: 6.00 Build 0)  -->
<svg version="1.1" id="Layer_1" xmlns="http://www.w3.org/2000/svg" xmlns:xlink="http://www.w3.org/1999/xlink" x="0px" y="0px"
	 viewBox="0 0 262.3 87.5" enable-background="new 0 0 262.3 87.5" xml:space="preserve">
<g id="XMLID_994_">
	<path id="XMLID_966_" fill="#fff" d="M35.6,36.9h4v1.6c0.8-0.8,1.4-1.4,2-1.6c0.6-0.3,1.3-0.4,2.2-0.4c2,0,3.5,0.9,4.7,2.6
		c1.3-1.7,3-2.6,5.1-2.6c3.9,0,5.9,2.4,5.9,7.1v10.8h-4v-9.7c0-1.7-0.2-2.8-0.6-3.5c-0.4-0.7-1.1-1.1-2.1-1.1
		c-1.1,0-1.9,0.4-2.4,1.3c-0.5,0.8-0.8,2.2-0.8,4v9h-4v-9.6c0-3.1-0.9-4.6-2.7-4.6c-1.1,0-2,0.4-2.5,1.3c-0.5,0.8-0.8,2.2-0.8,4v9
		h-4V36.9z"/>
	<path id="XMLID_963_" fill="#fff" d="M65.6,45.4c0-2.5,0.9-4.6,2.7-6.4c1.8-1.8,4-2.6,6.6-2.6c2.6,0,4.8,0.9,6.6,2.7
		c1.8,1.8,2.7,4,2.7,6.5c0,2.6-0.9,4.8-2.7,6.6c-1.8,1.8-4,2.6-6.7,2.6c-2.6,0-4.8-0.9-6.6-2.7C66.5,50.3,65.6,48.1,65.6,45.4z
		 M69.7,45.5c0,1.7,0.5,3.1,1.4,4.1c1,1,2.2,1.5,3.8,1.5c1.6,0,2.8-0.5,3.8-1.5c0.9-1,1.4-2.4,1.4-4.1c0-1.7-0.5-3-1.4-4.1
		c-1-1-2.2-1.5-3.8-1.5c-1.5,0-2.8,0.5-3.7,1.5C70.2,42.6,69.7,43.9,69.7,45.5z"/>
	<path id="XMLID_960_" fill="#fff" d="M89.4,45.4c0-2.5,0.9-4.6,2.7-6.4c1.8-1.8,4-2.6,6.6-2.6c2.6,0,4.8,0.9,6.6,2.7
		c1.8,1.8,2.7,4,2.7,6.5c0,2.6-0.9,4.8-2.7,6.6c-1.8,1.8-4,2.6-6.7,2.6c-2.6,0-4.8-0.9-6.6-2.7C90.3,50.3,89.4,48.1,89.4,45.4z
		 M93.5,45.5c0,1.7,0.5,3.1,1.4,4.1c1,1,2.2,1.5,3.8,1.5c1.6,0,2.8-0.5,3.8-1.5c0.9-1,1.4-2.4,1.4-4.1c0-1.7-0.5-3-1.4-4.1
		c-1-1-2.2-1.5-3.8-1.5c-1.5,0-2.8,0.5-3.7,1.5C94,42.6,93.5,43.9,93.5,45.5z"/>
	<path id="XMLID_958_" fill="#fff" d="M114,36.9h4v1.6c1.4-1.4,3-2.1,4.8-2.1c2,0,3.6,0.6,4.7,1.9c1,1.1,1.5,2.9,1.5,5.3v10.7h-4
		v-9.7c0-1.7-0.2-2.9-0.7-3.6c-0.5-0.7-1.3-1-2.5-1c-1.3,0-2.3,0.4-2.8,1.3c-0.5,0.9-0.8,2.4-0.8,4.6v8.4h-4V36.9z"/>
	<path id="XMLID_956_" fill="#fff" d="M153.2,40.6v13.6h-4V40.6h-1.4v-3.8h1.4v-6.7c0-2.2,0.4-3.7,1.1-4.6c1-1.3,2.6-1.9,4.6-1.9
		c0.7,0,1.6,0.2,2.7,0.6v4.1l-0.4-0.2c-0.9-0.4-1.6-0.7-2.1-0.7c-0.7,0-1.2,0.3-1.4,0.8c-0.3,0.5-0.4,1.5-0.4,2.9v5.7h4.4v3.8H153.2
		z"/>
	<path id="XMLID_954_" fill="#fff" d="M161.3,45.4c0-2.5,0.9-4.6,2.7-6.4c1.8-1.8,4-2.6,6.6-2.6c2.6,0,4.8,0.9,6.6,2.7
		c1.8,1.8,2.7,4,2.7,6.5c0,2.6-0.9,4.8-2.7,6.6c-1.8,1.8-4,2.6-6.7,2.6c-2.6,0-4.8-0.9-6.6-2.7C162.2,50.3,161.3,48.1,161.3,45.4z"
		/>
	<path id="XMLID_952_" fill="#fff" d="M185.2,45.4c0-2.5,0.9-4.6,2.7-6.4c1.8-1.8,4-2.6,6.6-2.6c2.6,0,4.8,0.9,6.6,2.7
		c1.8,1.8,2.7,4,2.7,6.5c0,2.6-0.9,4.8-2.7,6.6c-1.8,1.8-4,2.6-6.7,2.6c-2.6,0-4.8-0.9-6.6-2.7C186,50.3,185.2,48.1,185.2,45.4z"/>
	<path id="XMLID_949_" fill="#fff" d="M222.6,24.1h4v30.2h-4v-1.8c-1.6,1.5-3.4,2.3-5.4,2.3c-2.4,0-4.4-0.9-5.9-2.6
		c-1.6-1.8-2.3-4-2.3-6.6c0-2.6,0.8-4.8,2.3-6.5c1.5-1.8,3.5-2.6,5.8-2.6c2,0,3.9,0.8,5.5,2.5V24.1z M213.1,45.5
		c0,1.7,0.4,3,1.3,4.1c0.9,1.1,2.1,1.6,3.5,1.6c1.5,0,2.7-0.5,3.6-1.5c0.9-1.1,1.4-2.4,1.4-4c0-1.6-0.5-3-1.4-4
		c-0.9-1-2.1-1.6-3.6-1.6c-1.4,0-2.5,0.5-3.5,1.6C213.5,42.6,213.1,44,213.1,45.5z"/>
</g>
<rect id="XMLID_995_" x="1" y="1" fill="none" stroke="#fff" stroke-width="2" stroke-miterlimit="10" width="260.3" height="85.5"/>
</svg>
